<svg width="55" height="79" viewBox="0 0 55 79" fill="none" xmlns="http://www.w3.org/2000/svg">
<g clip-path="url(#clip0)">
<path d="M6.85942 0.00623895C6.99298 -0.0121735 7.1289 -0.00242059 7.25852 0.0348476C7.38814 0.0721158 7.50864 0.136083 7.61235 0.222716C7.71606 0.309349 7.80072 0.416746 7.86095 0.538061C7.92117 0.659376 7.95564 0.791976 7.96217 0.927414C7.91378 1.32226 7.82396 1.71084 7.69426 2.08668C7.40144 2.83237 7.07125 3.55927 6.72236 4.2799C4.34244 9.21153 3.25839 14.5066 2.53568 19.8706C2.0576 23.8519 2.31101 27.8876 3.2833 31.7767C3.76303 33.8195 4.3362 35.8498 5.00283 37.8425C6.15541 41.2953 8.11791 44.3533 10.1863 47.2421C13.0035 51.0087 16.3077 54.3805 20.0113 57.2682C23.9208 60.381 28.1184 63.109 32.5464 65.4145C36.4022 67.5084 40.3921 69.3422 44.4897 70.9039C45.1315 71.1635 45.7558 71.465 46.3587 71.8062C46.5039 71.9427 46.6002 72.1235 46.6329 72.3206C46.6655 72.5177 46.6327 72.7201 46.5394 72.8966C46.3727 73.1304 46.1407 73.3093 45.8728 73.4104C45.5872 73.4884 45.2861 73.4884 45.0006 73.4104C44.4217 73.261 43.8535 73.0726 43.2997 72.8464C38.434 70.7974 33.5682 68.7357 29.0139 66.0349C26.8707 64.7816 24.7213 63.4907 22.6592 62.0871C20.848 60.8474 19.1012 59.5151 17.4258 58.0954C13.8644 55.175 10.6921 51.8052 7.98708 48.0692C4.62951 43.3225 2.29523 37.9225 1.13389 32.2153C0.637342 29.5589 0.285847 26.877 0.0809936 24.1819C-0.118372 22.0576 0.342658 19.9834 0.623016 17.9155C1.35753 12.2516 3.01185 6.74755 5.51994 1.62297C5.72709 1.18125 5.97754 0.761414 6.26755 0.369699C6.43595 0.206355 6.63802 0.0822617 6.85942 0.00623895Z" fill="#3E3E3E"/>
<path d="M44.9134 79.0063C43.524 78.8872 42.1409 78.7619 40.7516 78.6491C39.4619 78.5425 38.1723 78.4611 36.8827 78.3546C31.6805 77.9222 26.634 76.9008 22.0175 74.3002C21.5851 74.0513 21.1689 73.7751 20.7714 73.4731C20.6401 73.3243 20.5561 73.1392 20.5302 72.942C20.5044 72.7447 20.5378 72.5441 20.6263 72.3661C20.7148 72.1882 20.8542 72.0409 21.0267 71.9433C21.1991 71.8458 21.3966 71.8024 21.5938 71.8188C21.9845 71.8846 22.3615 72.0159 22.709 72.2073C27.1449 74.7138 31.992 75.7415 36.9948 76.1613C41.3559 76.5248 45.7171 76.9196 50.1093 76.3431C50.5016 76.294 50.8866 76.1973 51.2557 76.0548C51.3318 76.0034 51.3936 75.9332 51.435 75.8509C51.4765 75.7686 51.4963 75.677 51.4924 75.5848C51.2747 75.1502 51.027 74.7314 50.751 74.3316C46.7076 68.1467 42.3714 62.1498 38.9137 55.5701C38.1597 54.2717 37.6368 52.8509 37.3686 51.3716C37.3284 51.0785 37.3284 50.7812 37.3686 50.488C37.3929 50.2863 37.4865 50.0995 37.6333 49.9599C37.7801 49.8203 37.9707 49.7367 38.1723 49.7236C38.4601 49.7205 38.7392 49.823 38.9573 50.0118C39.1816 50.2085 39.3422 50.4682 39.4183 50.7575C40.1161 53.6338 41.7048 56.0777 43.1564 58.5717C45.175 62.0244 47.3618 65.3644 49.6608 68.648C51.1498 70.7723 52.483 73.0344 54.0219 75.0898C54.3587 75.5824 54.6506 76.1046 54.8941 76.6501C54.9773 76.8908 54.9663 77.1543 54.8633 77.387C54.7603 77.6198 54.5731 77.8044 54.3396 77.9034C54.0741 78.0401 53.7911 78.1392 53.4985 78.1979C50.6638 78.411 47.8478 79.0063 44.9134 79.0063Z" fill="#3E3E3E"/>
</g>
<defs>
<clipPath id="clip0">
<rect width="55" height="79" fill="white"/>
</clipPath>
</defs>
</svg>
