<svg width="274" height="38" viewBox="0 0 274 38" fill="none" xmlns="http://www.w3.org/2000/svg">
<rect width="274" height="38" rx="2" fill="#7289DA"/>
<path d="M19.19 17.39C18.62 17.39 18.17 17.89 18.17 18.5C18.17 19.11 18.63 19.61 19.19 19.61C19.76 19.61 20.21 19.11 20.21 18.5C20.22 17.89 19.76 17.39 19.19 17.39ZM22.84 17.39C22.27 17.39 21.82 17.89 21.82 18.5C21.82 19.11 22.28 19.61 22.84 19.61C23.41 19.61 23.86 19.11 23.86 18.5C23.86 17.89 23.41 17.39 22.84 17.39Z" fill="white"/>
<path d="M27.7 9H14.3C13.17 9 12.25 9.92 12.25 11.06V24.58C12.25 25.72 13.17 26.64 14.3 26.64H25.64L25.11 24.79L26.39 25.98L27.6 27.1L29.75 29V11.06C29.75 9.92 28.83 9 27.7 9ZM23.84 22.06C23.84 22.06 23.48 21.63 23.18 21.25C24.49 20.88 24.99 20.06 24.99 20.06C24.58 20.33 24.19 20.52 23.84 20.65C23.34 20.86 22.86 21 22.39 21.08C21.43 21.26 20.55 21.21 19.8 21.07C19.23 20.96 18.74 20.8 18.33 20.64C18.1 20.55 17.85 20.44 17.6 20.3C17.57 20.28 17.54 20.27 17.51 20.25C17.49 20.24 17.48 20.23 17.47 20.22C17.29 20.12 17.19 20.05 17.19 20.05C17.19 20.05 17.67 20.85 18.94 21.23C18.64 21.61 18.27 22.06 18.27 22.06C16.06 21.99 15.22 20.54 15.22 20.54C15.22 17.32 16.66 14.71 16.66 14.71C18.1 13.63 19.47 13.66 19.47 13.66L19.57 13.78C17.77 14.3 16.94 15.09 16.94 15.09C16.94 15.09 17.16 14.97 17.53 14.8C18.6 14.33 19.45 14.2 19.8 14.17C19.86 14.16 19.91 14.15 19.97 14.15C20.58 14.07 21.27 14.05 21.99 14.13C22.94 14.24 23.96 14.52 25 15.09C25 15.09 24.21 14.34 22.51 13.82L22.65 13.66C22.65 13.66 24.02 13.63 25.46 14.71C25.46 14.71 26.9 17.32 26.9 20.54C26.9 20.54 26.05 21.99 23.84 22.06Z" fill="white"/>
<path d="M45.8182 12.8636H44.4091V24.5H45.8182V12.8636ZM49.8026 19.25C49.8026 17.7273 50.7457 16.8636 52.0298 16.8636C53.2741 16.8636 54.0298 17.6761 54.0298 19.0455V24.5H55.3707V18.9545C55.3707 16.7273 54.1832 15.6591 52.4162 15.6591C51.098 15.6591 50.2798 16.25 49.8707 17.1364H49.7571V15.7727H48.4616V24.5H49.8026V19.25ZM64.6449 15.7727H63.1903L60.7812 22.7273H60.6903L58.2812 15.7727H56.8267L60.054 24.5H61.4176L64.6449 15.7727ZM66.9616 24.5H68.3026V15.7727H66.9616V24.5ZM67.6435 14.3182C68.1662 14.3182 68.598 13.9091 68.598 13.4091C68.598 12.9091 68.1662 12.5 67.6435 12.5C67.1207 12.5 66.6889 12.9091 66.6889 13.4091C66.6889 13.9091 67.1207 14.3182 67.6435 14.3182ZM74.554 15.7727H72.6903V13.6818H71.3494V15.7727H70.0312V16.9091H71.3494V22.3636C71.3494 23.8864 72.5767 24.6136 73.7131 24.6136C74.2131 24.6136 74.5312 24.5227 74.7131 24.4545L74.4403 23.25C74.3267 23.2727 74.1449 23.3182 73.8494 23.3182C73.2585 23.3182 72.6903 23.1364 72.6903 22V16.9091H74.554V15.7727ZM80.1364 24.6818C81.9091 24.6818 83.2045 23.7955 83.6136 22.4773L82.3182 22.1136C81.9773 23.0227 81.1875 23.4773 80.1364 23.4773C78.5625 23.4773 77.4773 22.4602 77.4148 20.5909H83.75V20.0227C83.75 16.7727 81.8182 15.6591 80 15.6591C77.6364 15.6591 76.0682 17.5227 76.0682 20.2045C76.0682 22.8864 77.6136 24.6818 80.1364 24.6818ZM77.4148 19.4318C77.5057 18.0739 78.4659 16.8636 80 16.8636C81.4545 16.8636 82.3864 17.9545 82.3864 19.4318H77.4148ZM85.7898 24.5H87.1307V18.9773C87.1307 17.8011 88.0625 16.9318 89.3352 16.9318C89.6705 16.9318 89.9205 16.9943 90.108 17.0909L90.5625 15.9545C90.2898 15.7614 89.9318 15.6364 89.4489 15.6364C88.392 15.6364 87.4886 16.2273 87.1761 17.0909H87.0852V15.7727H85.7898V24.5ZM96.6122 24.5H98.0213V20.25H100.567C103.277 20.25 104.499 18.6023 104.499 16.5455C104.499 14.4886 103.277 12.8636 100.544 12.8636H96.6122V24.5ZM98.0213 19V14.1136H100.499C102.391 14.1136 103.112 15.1477 103.112 16.5455C103.112 17.9432 102.391 19 100.521 19H98.0213ZM110.038 24.6818C112.402 24.6818 113.993 22.8864 113.993 20.1818C113.993 17.4545 112.402 15.6591 110.038 15.6591C107.675 15.6591 106.084 17.4545 106.084 20.1818C106.084 22.8864 107.675 24.6818 110.038 24.6818ZM110.038 23.4773C108.243 23.4773 107.425 21.9318 107.425 20.1818C107.425 18.4318 108.243 16.8636 110.038 16.8636C111.834 16.8636 112.652 18.4318 112.652 20.1818C112.652 21.9318 111.834 23.4773 110.038 23.4773ZM117.381 12.8636H116.04V24.5H117.381V12.8636ZM121.178 12.8636H119.837V24.5H121.178V12.8636ZM127.179 24.6818C129.543 24.6818 131.134 22.8864 131.134 20.1818C131.134 17.4545 129.543 15.6591 127.179 15.6591C124.815 15.6591 123.224 17.4545 123.224 20.1818C123.224 22.8864 124.815 24.6818 127.179 24.6818ZM127.179 23.4773C125.384 23.4773 124.565 21.9318 124.565 20.1818C124.565 18.4318 125.384 16.8636 127.179 16.8636C128.974 16.8636 129.793 18.4318 129.793 20.1818C129.793 21.9318 128.974 23.4773 127.179 23.4773ZM143.862 17.7273C143.442 16.4886 142.499 15.6591 140.771 15.6591C138.93 15.6591 137.567 16.7045 137.567 18.1818C137.567 19.3864 138.283 20.1932 139.885 20.5682L141.339 20.9091C142.22 21.1136 142.635 21.5341 142.635 22.1364C142.635 22.8864 141.839 23.5 140.589 23.5C139.493 23.5 138.805 23.0284 138.567 22.0909L137.294 22.4091C137.607 23.892 138.828 24.6818 140.612 24.6818C142.641 24.6818 144.021 23.5739 144.021 22.0682C144.021 20.8523 143.26 20.0852 141.703 19.7045L140.408 19.3864C139.374 19.1307 138.908 18.7841 138.908 18.1136C138.908 17.3636 139.703 16.8182 140.771 16.8182C141.942 16.8182 142.425 17.4659 142.658 18.0682L143.862 17.7273ZM151.54 20.9318C151.54 22.5682 150.29 23.3182 149.29 23.3182C148.176 23.3182 147.381 22.5 147.381 21.2273V15.7727H146.04V21.3182C146.04 23.5455 147.222 24.6136 148.858 24.6136C150.176 24.6136 151.04 23.9091 151.449 23.0227H151.54V24.5H152.881V15.7727H151.54V20.9318ZM155.337 24.5H156.678V18.9773C156.678 17.8011 157.609 16.9318 158.882 16.9318C159.217 16.9318 159.467 16.9943 159.655 17.0909L160.109 15.9545C159.837 15.7614 159.479 15.6364 158.996 15.6364C157.939 15.6364 157.036 16.2273 156.723 17.0909H156.632V15.7727H155.337V24.5ZM173.114 15.7727H171.659L169.25 22.7273H169.159L166.75 15.7727H165.295L168.523 24.5H169.886L173.114 15.7727ZM178.116 24.6818C180.48 24.6818 182.071 22.8864 182.071 20.1818C182.071 17.4545 180.48 15.6591 178.116 15.6591C175.753 15.6591 174.162 17.4545 174.162 20.1818C174.162 22.8864 175.753 24.6818 178.116 24.6818ZM178.116 23.4773C176.321 23.4773 175.503 21.9318 175.503 20.1818C175.503 18.4318 176.321 16.8636 178.116 16.8636C179.912 16.8636 180.73 18.4318 180.73 20.1818C180.73 21.9318 179.912 23.4773 178.116 23.4773ZM187.913 15.7727H186.05V13.6818H184.709V15.7727H183.391V16.9091H184.709V22.3636C184.709 23.8864 185.936 24.6136 187.072 24.6136C187.572 24.6136 187.891 24.5227 188.072 24.4545L187.8 23.25C187.686 23.2727 187.504 23.3182 187.209 23.3182C186.618 23.3182 186.05 23.1364 186.05 22V16.9091H187.913V15.7727ZM189.93 24.5H191.271V18.9773C191.271 17.8011 192.203 16.9318 193.476 16.9318C193.811 16.9318 194.061 16.9943 194.249 17.0909L194.703 15.9545C194.43 15.7614 194.072 15.6364 193.589 15.6364C192.533 15.6364 191.629 16.2273 191.317 17.0909H191.226V15.7727H189.93V24.5ZM199.464 24.6818C201.237 24.6818 202.533 23.7955 202.942 22.4773L201.646 22.1136C201.305 23.0227 200.516 23.4773 199.464 23.4773C197.891 23.4773 196.805 22.4602 196.743 20.5909H203.078V20.0227C203.078 16.7727 201.146 15.6591 199.328 15.6591C196.964 15.6591 195.396 17.5227 195.396 20.2045C195.396 22.8864 196.942 24.6818 199.464 24.6818ZM196.743 19.4318C196.834 18.0739 197.794 16.8636 199.328 16.8636C200.783 16.8636 201.714 17.9545 201.714 19.4318H196.743ZM212.913 24.6818C214.595 24.6818 215.163 23.6364 215.459 23.1591H215.618V24.5H216.913V12.8636H215.572V17.1591H215.459C215.163 16.7045 214.641 15.6591 212.936 15.6591C210.732 15.6591 209.209 17.4091 209.209 20.1591C209.209 22.9318 210.732 24.6818 212.913 24.6818ZM213.095 23.4773C211.413 23.4773 210.55 22 210.55 20.1364C210.55 18.2955 211.391 16.8636 213.095 16.8636C214.732 16.8636 215.595 18.1818 215.595 20.1364C215.595 22.1136 214.709 23.4773 213.095 23.4773ZM219.555 24.5H220.896V15.7727H219.555V24.5ZM220.237 14.3182C220.76 14.3182 221.192 13.9091 221.192 13.4091C221.192 12.9091 220.76 12.5 220.237 12.5C219.714 12.5 219.283 12.9091 219.283 13.4091C219.283 13.9091 219.714 14.3182 220.237 14.3182ZM229.534 17.7273C229.114 16.4886 228.17 15.6591 226.443 15.6591C224.602 15.6591 223.239 16.7045 223.239 18.1818C223.239 19.3864 223.955 20.1932 225.557 20.5682L227.011 20.9091C227.892 21.1136 228.307 21.5341 228.307 22.1364C228.307 22.8864 227.511 23.5 226.261 23.5C225.165 23.5 224.477 23.0284 224.239 22.0909L222.966 22.4091C223.278 23.892 224.5 24.6818 226.284 24.6818C228.312 24.6818 229.693 23.5739 229.693 22.0682C229.693 20.8523 228.932 20.0852 227.375 19.7045L226.08 19.3864C225.045 19.1307 224.58 18.7841 224.58 18.1136C224.58 17.3636 225.375 16.8182 226.443 16.8182C227.614 16.8182 228.097 17.4659 228.33 18.0682L229.534 17.7273ZM235.257 24.6818C237.189 24.6818 238.462 23.5 238.689 21.9545H237.348C237.098 22.9091 236.303 23.4773 235.257 23.4773C233.666 23.4773 232.643 22.1591 232.643 20.1364C232.643 18.1591 233.689 16.8636 235.257 16.8636C236.439 16.8636 237.143 17.5909 237.348 18.3864H238.689C238.462 16.75 237.075 15.6591 235.234 15.6591C232.871 15.6591 231.303 17.5227 231.303 20.1818C231.303 22.7955 232.803 24.6818 235.257 24.6818ZM244.195 24.6818C246.558 24.6818 248.149 22.8864 248.149 20.1818C248.149 17.4545 246.558 15.6591 244.195 15.6591C241.831 15.6591 240.24 17.4545 240.24 20.1818C240.24 22.8864 241.831 24.6818 244.195 24.6818ZM244.195 23.4773C242.399 23.4773 241.581 21.9318 241.581 20.1818C241.581 18.4318 242.399 16.8636 244.195 16.8636C245.99 16.8636 246.808 18.4318 246.808 20.1818C246.808 21.9318 245.99 23.4773 244.195 23.4773ZM250.196 24.5H251.537V18.9773C251.537 17.8011 252.469 16.9318 253.741 16.9318C254.077 16.9318 254.327 16.9943 254.514 17.0909L254.969 15.9545C254.696 15.7614 254.338 15.6364 253.855 15.6364C252.798 15.6364 251.895 16.2273 251.582 17.0909H251.491V15.7727H250.196V24.5ZM259.366 24.6818C261.048 24.6818 261.616 23.6364 261.912 23.1591H262.071V24.5H263.366V12.8636H262.026V17.1591H261.912C261.616 16.7045 261.094 15.6591 259.389 15.6591C257.185 15.6591 255.662 17.4091 255.662 20.1591C255.662 22.9318 257.185 24.6818 259.366 24.6818ZM259.548 23.4773C257.866 23.4773 257.003 22 257.003 20.1364C257.003 18.2955 257.844 16.8636 259.548 16.8636C261.185 16.8636 262.048 18.1818 262.048 20.1364C262.048 22.1136 261.162 23.4773 259.548 23.4773Z" fill="white"/>
</svg>
